/* XPM */
static char*beostheme[]={
"32 32 4 1",
"a c #000080",
"# c #d6cdbb",
"b c #800000",
". c None",
"................................",
".............####.......##......",
"..aaaaaaaa......................",
"..aaaaaaaaa.....................",
"...aa.....aa....................",
"...aa.....aa....................",
"...aa......aa...................",
"...aa......aa...................",
"...aa......aa...................",
"...aa......aa...................",
"...aa......aa...................",
"...aa.....aa........bbbbbb......",
"...aa.....aa.......bbbbbbbb.....",
"...aa....aa.......bb......bb....",
"...aaaaaaaa.......bb......bb....",
"#..aaaaaaaaa.....bb.......bb....",
"#..aa......aa....bb......bbb....",
"#..aa.......aa...bbbbbbbbbb.....",
"...aa.......aa...bbbbbbbbb......",
"...aa........aa..bb.............",
"...aa........aa..bb.............",
"...aa........aa..bb.............",
"...aa........aa...bb............",
"...aa.......aa....bb......bb....",
"...aa......aaa.....bb.....bb....",
"..aaaaaaaaaaa......bbbbbbbb.....",
"..aaaaaaaaaa........bbbbbb......",
"................................",
"..aaaaaaaaaaaaaaabbbbbbbbbbbb...",
"..aaaaaaaaaaaaaaabbbbbbbbbbbb...",
"............#####...............",
".............###................"};
