/* XPM */
static char*mactheme[]={
"32 32 166 2",
"ab c #7b7363",
"ag c #18189c",
"#X c #5284e7",
"ar c #94b5f7",
".4 c #8cbdff",
"#D c #9cb5f7",
"af c #000052",
"#f c #94bdff",
"as c #5a8cef",
"am c #000063",
".R c #21427b",
"#s c #8cc6ff",
".v c #0031bd",
"at c #6b8cef",
"#v c #29427b",
"aI c #21428c",
"aG c #2163e7",
"#B c #6b94f7",
"#U c #525ad6",
"#z c #1031bd",
"#1 c #a5c6ff",
"#K c #6b9cff",
".r c #637bb5",
"aC c #5a7bc6",
"#k c #2131bd",
"#m c #5e6fce",
"#7 c #63a4fc",
".s c #00009c",
"a# c #4a4a29",
"#a c #73a5ff",
"an c #000042",
"ap c #636b73",
"au c #4a5242",
"#E c #6b8cce",
"#q c #8ca5ff",
"aD c #0010bd",
"aa c #cef7ff",
"aj c #6b737b",
".5 c #39425a",
".N c #4684ff",
"#P c #def7ff",
"#o c #1031ad",
".S c #7b94d6",
"## c #5a83da",
"#Z c #737bff",
".E c #426bbd",
".h c #5e84ff",
".6 c #9cd6ff",
".j c #5d7094",
".c c #1839c6",
".Y c #000010",
".X c #4273d6",
"#L c #adadad",
"#e c #add6ff",
"#r c #000021",
"#R c #b5d6ff",
".W c #5273d6",
"#W c #84a5de",
".l c #adbaec",
"#T c #1e5ad8",
"#J c #8ca5de",
"#p c #5273e7",
"aH c #0852d6",
"ah c #2942b5",
"ai c #212100",
".i c #5a7bef",
".u c #0018b5",
"#x c #848cad",
".M c #6b73e7",
".G c #0039a5",
".9 c #4a84ef",
"#Y c #737bde",
".b c #0c29b7",
"#M c #526394",
".d c #425ece",
".0 c #528cf7",
"#C c #393110",
"ad c #00006b",
".o c #949cbd",
".# c #000000",
".U c #5e94ff",
".I c #1029bd",
".C c #4a7bce",
"#A c #4a67ce",
".z c #0841f1",
"#b c #577ef9",
".Q c #c6d6ef",
"az c #0446ce",
"al c #3142a5",
".J c #1852c6",
".1 c #8494ff",
"#V c #8cade7",
"#g c #9cadd6",
".m c #94ade7",
".F c #2b4fb7",
"#Q c #b5efff",
".O c #1018a5",
"ae c #000039",
"ay c #2b44d3",
"#H c #8c9c9c",
".L c #0021a5",
"#N c #3967da",
".A c #c6efff",
"#l c #315ace",
"aJ c #9c9c9c",
"#t c #9cbdf7",
"#d c #ceefff",
"#i c #6b8cd6",
"#F c #3163bd",
"aB c #6b94de",
"aq c #deefff",
"#O c #6b73ff",
"ak c #6b94ef",
"#2 c #94ceff",
".e c #3963ce",
"ac c #a5c6f7",
"#c c #a5ceff",
".Z c #2931b5",
"#j c #4163b2",
".f c #5263ce",
"#S c #a5adb5",
".y c #0021de",
".7 c #adadb5",
"ao c #000094",
".g c #526bd6",
".q c #6389e4",
"a. c #6badff",
".H c #0000a5",
"#0 c #427bf7",
".K c #636bd6",
".t c #0008ad",
"#G c #6b6bd6",
".B c #7badff",
"Qt c None",
"#8 c #84adff",
"#n c #6b73de",
"aw c #738cc6",
".T c #b5bdd6",
"#9 c #94a5f7",
"#I c #c6ffff",
"av c #d6ffff",
"#. c #52639c",
".p c #7b9cd6",
".n c #739ce7",
".w c #0021bd",
".k c #e7ffff",
"#u c #bdc6d6",
"aE c #94deff",
"#h c #849cd6",
"#5 c #000073",
".D c #4a73bd",
"#y c #295aca",
"aA c #f7ffff",
"aF c #4a73ce",
".x c #001cb9",
".2 c #ffffff",
".a c #6b6342",
".P c #addeff",
"ax c #0536c6",
".8 c #84a5d6",
"#w c #8ca5d6",
".3 c #bddeff",
".V c #7b8ca5",
"#6 c #3942ad",
"#4 c #8cadef",
"#3 c #cedeff",
"QtQtQtQtQtQtQtQtQtQtQtQtQtQtQtQtQtQtQtQtQtQtQtQtQtQtQtQtQtQtQtQt",
"QtQtQtQtQtQtQtQtQtQtQtQtQtQtQtQtQtQtQtQtQtQtQtQtQtQtQtQtQtQtQtQt",
"QtQtQtQtQtQtQtQtQtQtQtQtQtQtQtQtQtQtQtQtQtQtQtQtQtQtQtQtQtQtQtQt",
"QtQtQtQtQtQtQtQtQtQtQtQtQtQtQtQtQtQtQtQtQtQtQtQtQtQtQtQtQtQtQtQt",
"QtQtQtQtQtQtQtQtQtQtQtQtQtQtQtQtQtQt.#QtQtQtQtQtQtQtQtQtQtQtQtQt",
"QtQtQtQtQtQtQtQtQtQtQtQtQtQtQtQtQt.#.#QtQtQtQtQtQtQtQtQtQtQtQtQt",
"QtQtQtQtQtQtQtQtQtQtQtQtQtQtQtQt.a.#QtQtQtQtQtQtQtQtQtQtQtQtQtQt",
"QtQtQtQtQt.b.c.d.d.e.f.d.e.g.h.i.#.j.k.l.m.n.o.p.q.rQtQtQtQtQtQt",
"QtQtQtQtQt.s.s.t.u.u.v.w.x.y.z.#.#.A.B.B.q.C.D.E.F.GQtQtQtQtQtQt",
"QtQtQtQtQt.H.I.J.d.K.L.e.M.N.O.#.P.A.Q.R.S.T.U.p.V.JQtQtQtQtQtQt",
"QtQtQtQtQt.H.b.f.W.X.Y.Z.0.1.#.#.2.3.4.#.5.6.7.8.9#.QtQtQtQtQtQt",
"QtQtQtQtQt.H.v.f##.W.Y.Z#a#b.##c#d#e#f.#.5.P#g#h#i#jQtQtQtQtQtQt",
"QtQtQtQtQt.t#k#l#m#n#o#p#q#r.#.2#s#t#u#v#w#u#a#h#x#yQtQtQtQtQtQt",
"QtQtQtQtQt.H#z.d#A.W.q.h#B.##C.k#t.m#D#e#t.m.8#h#E#FQtQtQtQtQtQt",
"QtQtQtQtQt.H.v.f.f.e#G.h#b.##H#I.Q#t#a.7#J#K#L#h.9#MQtQtQtQtQtQt",
"QtQtQtQtQt.H#k#y#A#m#N.h#O.##P.2#Q#R#u#a#w#S#K#h#x#TQtQtQtQtQtQt",
"QtQtQtQtQt.t#z.d.f.f.W.h#U.#.#.#.#.##R#t#w#V#w#W#E#FQtQtQtQtQtQt",
"QtQtQtQtQt.H.v.K.q#X#Y.i.N#Z#0#b.#.##I.Q#1#2#3#4.0#MQtQtQtQtQtQt",
"QtQtQtQtQt.t#k.X#5#6#7#8#9a..B#c.#a#.2#Iaaab.#ac.o#TQtQtQtQtQtQt",
"QtQtQtQtQt.t.c.Wadaeaf#5agah#p.h.#aiaj.#.#.#.##t.n#FQtQtQtQtQtQt",
"QtQtQtQtQt.H.v.Kak#Xalamafanamao.#.#.#.#ap.6aqaras#.QtQtQtQtQtQt",
"QtQtQtQtQt.H.I#l#A##.q#Bat.q.h#8.#au.2av.3#c#8#Waw#FQtQtQtQtQtQt",
"QtQtQtQtQt.s.H.b#z#kax.cayaz#T#b.#.#aA#7aB#x.9aC.jazQtQtQtQtQtQt",
"QtQtQtQtQt.s.H.H.H.t.t.t.t.taD.z#r.#aE#waFaG.j#jaHaIQtQtQtQtQtQt",
"QtQtQtQtQtQtQtQtQtQtQtQtQtQtQtQtQt.#QtQtQtQtQtQtQtQtQtQtQtQtQtQt",
"QtQtQtQtQtQtQtQtQtQtQtQtQtQtQtQtQt.#.#QtQtQtQtQtQtQtQtQtQtQtQtQt",
"QtQtQtQtQtQtQtQtQtQtQtQtQtQtQtQtQtaJ.#QtQtQtQtQtQtQtQtQtQtQtQtQt",
"QtQtQtQtQtQtQtQtQtQtQtQtQtQtQtQtQtQtQtQtQtQtQtQtQtQtQtQtQtQtQtQt",
"QtQtQtQtQtQtQtQtQtQtQtQtQtQtQtQtQtQtQtQtQtQtQtQtQtQtQtQtQtQtQtQt",
"QtQtQtQtQtQtQtQtQtQtQtQtQtQtQtQtQtQtQtQtQtQtQtQtQtQtQtQtQtQtQtQt",
"QtQtQtQtQtQtQtQtQtQtQtQtQtQtQtQtQtQtQtQtQtQtQtQtQtQtQtQtQtQtQtQt",
"QtQtQtQtQtQtQtQtQtQtQtQtQtQtQtQtQtQtQtQtQtQtQtQtQtQtQtQtQtQtQtQt"};
