/* XPM */
static char*close[]={
"16 16 4 1",
"a c #c3c3c3",
"b c #000000",
"# c #585858",
". c #dcdcdc",
"................",
"...............#",
"..aaaaaaaaaaaa##",
"..aaaaaaaaaaaa##",
"..aabbaaaabbaa##",
"..aabbbaabbbaa##",
"..aaabbbbbbaaa##",
"..aaaabbbbaaaa##",
"..aaaabbbbaaaa##",
"..aaabbbbbbaaa##",
"..aabbbaabbbaa##",
"..aabbaaaabbaa##",
"..aaaaaaaaaaaa##",
"..aaaaaaaaaaaa##",
"..##############",
".###############"};
