/* XPM */
static char*maximize[]={
"16 16 4 1",
"a c #c3c3c3",
"b c #000000",
"# c #585858",
". c #dcdcdc",
"................",
"...............#",
"..aaaaaaaaaaaa##",
"..abbbbbbbbbba##",
"..abbbbbbbbbba##",
"..abaaaaaaaaba##",
"..abaaaaaaaaba##",
"..abaaaaaaaaba##",
"..abaaaaaaaaba##",
"..abaaaaaaaaba##",
"..abaaaaaaaaba##",
"..abaaaaaaaaba##",
"..abbbbbbbbbba##",
"..aaaaaaaaaaaa##",
"..##############",
".###############"};
